<mxfile host="app.diagrams.net" modified="2024-01-29T16:47:43.617Z" agent="Mozilla/5.0 (Macintosh; Intel Mac OS X 10_15_7) AppleWebKit/537.36 (KHTML, like Gecko) Chrome/121.0.0.0 Safari/537.36" etag="xbrooQBsgXWFKxZ3AI-f" version="23.0.2" type="github">
  <diagram id="C5RBs43oDa-KdzZeNtuy" name="Page-1">
    <mxGraphModel dx="3353" dy="1236" grid="1" gridSize="10" guides="1" tooltips="1" connect="1" arrows="1" fold="1" page="1" pageScale="1" pageWidth="827" pageHeight="1169" math="0" shadow="0">
      <root>
        <mxCell id="WIyWlLk6GJQsqaUBKTNV-0" />
        <mxCell id="WIyWlLk6GJQsqaUBKTNV-1" parent="WIyWlLk6GJQsqaUBKTNV-0" />
        <mxCell id="SYZ7JO2TZXci38MoTMtk-57" value="" style="edgeStyle=orthogonalEdgeStyle;rounded=0;orthogonalLoop=1;jettySize=auto;html=1;startArrow=block;startFill=1;endArrow=none;endFill=0;exitX=1;exitY=0.5;exitDx=0;exitDy=0;" parent="WIyWlLk6GJQsqaUBKTNV-1" source="SYZ7JO2TZXci38MoTMtk-32" target="SYZ7JO2TZXci38MoTMtk-58" edge="1">
          <mxGeometry relative="1" as="geometry">
            <mxPoint x="600" y="1802" as="sourcePoint" />
          </mxGeometry>
        </mxCell>
        <mxCell id="SYZ7JO2TZXci38MoTMtk-0" value="&lt;b&gt;keywords&lt;/b&gt;&lt;br&gt;flight&lt;br&gt;airline&lt;br&gt;schedule&lt;br&gt;manage staff&lt;br&gt;ticket reserve&lt;br&gt;aircraft&lt;br&gt;piolot&lt;br&gt;airport&lt;br&gt;flight information&lt;br&gt;view the available flights&lt;br&gt;schedule them&lt;br&gt;admin&lt;br&gt;&lt;br&gt;&lt;br&gt;&lt;b&gt;Scope Down with Questions&lt;/b&gt;&lt;br&gt;Q1. How do customers pay for the ticket? - Cash? Creditcard?&lt;br&gt;Q2. What type of users?&lt;br&gt;- FrontDeskOfficer&lt;br&gt;- Customer&lt;br&gt;- Admin&lt;br&gt;Q3. Notification&lt;br&gt;- Send Email Notif when booking is complete / updated / canceled&lt;br&gt;Q4. Can a customer reserve more than one tickets at a time?&lt;br&gt;- Yes&lt;br&gt;- Then we will call it itinerary&lt;br&gt;Q5. Is there a penalty fee for cancelling the flight within 48 hours?&lt;br&gt;- No&lt;br&gt;Q6. Does airline has aircrafts&lt;br&gt;Q7. Seat Type?&lt;br&gt;- Economy / Business&lt;br&gt;Q8. Seat Fare?&lt;br&gt;- Depends on the Seat Type&lt;br&gt;&lt;br&gt;&lt;b&gt;Design Pattern&lt;/b&gt;&lt;br&gt;Notification -&amp;gt; Observer Pattern&lt;br&gt;System -&amp;gt; Singleton&amp;nbsp;&lt;br&gt;&lt;br&gt;&lt;b&gt;Requirements&lt;/b&gt;&lt;br&gt;R1.&amp;nbsp;&lt;br&gt;R2.&lt;br&gt;&lt;br&gt;&lt;br&gt;Use-Case&lt;br&gt;&lt;br&gt;Actors (Customer, FrontdeskOfficer, Crew, Admin) vs. System (Airline Management System)&lt;br&gt;&lt;br&gt;Actor + Usecase&lt;br&gt;&lt;br&gt;&lt;u&gt;Customer&lt;/u&gt;&lt;br&gt;- Search for available flights on given date, departure, arrival&lt;br&gt;- Create / Cancel / Update the flightBook&lt;br&gt;- Create a itinerary that has a collection flightBook&lt;br&gt;- Make a payment&lt;br&gt;&lt;br&gt;&lt;u&gt;Admin&lt;/u&gt;&lt;br&gt;- Add new airline&lt;br&gt;- Add new aircraft&lt;br&gt;- Add airport&lt;br&gt;- Add / update / delete flights&lt;br&gt;- Add / update / delete flgihtInstance&lt;br&gt;- assign crews to flightInstance&lt;br&gt;&lt;br&gt;&lt;u&gt;FrontDeskOfficer&lt;/u&gt;&lt;br&gt;- View / Search the available flights&lt;br&gt;- Book a flight&lt;br&gt;- Create a itinerary on behalf of a customer&lt;br&gt;- &lt;i&gt;all the other things that Customer can do&lt;br&gt;&lt;/i&gt;&lt;br&gt;&lt;u style=&quot;&quot;&gt;System&lt;/u&gt;&lt;br&gt;1. Send notification&lt;br&gt;2. Flight Status notification&lt;br&gt;3. Reservation cancel notification&lt;br&gt;&lt;br&gt;&lt;br&gt;&lt;b&gt;Class Diagram&lt;br&gt;&lt;/b&gt;" style="text;strokeColor=none;align=left;fillColor=#D5E8D4;html=1;verticalAlign=top;whiteSpace=wrap;rounded=0;labelBackgroundColor=#D5E8D4;" parent="WIyWlLk6GJQsqaUBKTNV-1" vertex="1">
          <mxGeometry x="-50" y="40" width="480" height="2150" as="geometry" />
        </mxCell>
        <mxCell id="SYZ7JO2TZXci38MoTMtk-9" value="" style="edgeStyle=orthogonalEdgeStyle;rounded=0;orthogonalLoop=1;jettySize=auto;html=1;endArrow=diamond;endFill=1;" parent="WIyWlLk6GJQsqaUBKTNV-1" source="SYZ7JO2TZXci38MoTMtk-1" target="SYZ7JO2TZXci38MoTMtk-5" edge="1">
          <mxGeometry relative="1" as="geometry" />
        </mxCell>
        <mxCell id="SYZ7JO2TZXci38MoTMtk-10" value="composition" style="edgeLabel;html=1;align=center;verticalAlign=middle;resizable=0;points=[];" parent="SYZ7JO2TZXci38MoTMtk-9" vertex="1" connectable="0">
          <mxGeometry x="0.0179" y="1" relative="1" as="geometry">
            <mxPoint as="offset" />
          </mxGeometry>
        </mxCell>
        <mxCell id="SYZ7JO2TZXci38MoTMtk-1" value="FlightSeat" style="swimlane;fontStyle=1;align=center;verticalAlign=top;childLayout=stackLayout;horizontal=1;startSize=26;horizontalStack=0;resizeParent=1;resizeParentMax=0;resizeLast=0;collapsible=1;marginBottom=0;whiteSpace=wrap;html=1;" parent="WIyWlLk6GJQsqaUBKTNV-1" vertex="1">
          <mxGeometry x="-50" y="1190" width="160" height="134" as="geometry" />
        </mxCell>
        <mxCell id="SYZ7JO2TZXci38MoTMtk-2" value="- aircraftId&lt;br&gt;- passengerId&lt;br&gt;- seatNumber&lt;br&gt;- fare: SeatFairType&lt;br&gt;- type: SeatType" style="text;strokeColor=none;fillColor=none;align=left;verticalAlign=top;spacingLeft=4;spacingRight=4;overflow=hidden;rotatable=0;points=[[0,0.5],[1,0.5]];portConstraint=eastwest;whiteSpace=wrap;html=1;" parent="SYZ7JO2TZXci38MoTMtk-1" vertex="1">
          <mxGeometry y="26" width="160" height="74" as="geometry" />
        </mxCell>
        <mxCell id="SYZ7JO2TZXci38MoTMtk-3" value="" style="line;strokeWidth=1;fillColor=none;align=left;verticalAlign=middle;spacingTop=-1;spacingLeft=3;spacingRight=3;rotatable=0;labelPosition=right;points=[];portConstraint=eastwest;strokeColor=inherit;" parent="SYZ7JO2TZXci38MoTMtk-1" vertex="1">
          <mxGeometry y="100" width="160" height="8" as="geometry" />
        </mxCell>
        <mxCell id="SYZ7JO2TZXci38MoTMtk-4" value="+ fetchDetail()" style="text;strokeColor=none;fillColor=none;align=left;verticalAlign=top;spacingLeft=4;spacingRight=4;overflow=hidden;rotatable=0;points=[[0,0.5],[1,0.5]];portConstraint=eastwest;whiteSpace=wrap;html=1;" parent="SYZ7JO2TZXci38MoTMtk-1" vertex="1">
          <mxGeometry y="108" width="160" height="26" as="geometry" />
        </mxCell>
        <mxCell id="SYZ7JO2TZXci38MoTMtk-19" style="edgeStyle=orthogonalEdgeStyle;rounded=0;orthogonalLoop=1;jettySize=auto;html=1;entryX=0.5;entryY=0;entryDx=0;entryDy=0;endArrow=open;endFill=0;" parent="WIyWlLk6GJQsqaUBKTNV-1" source="SYZ7JO2TZXci38MoTMtk-5" target="SYZ7JO2TZXci38MoTMtk-11" edge="1">
          <mxGeometry relative="1" as="geometry" />
        </mxCell>
        <mxCell id="SYZ7JO2TZXci38MoTMtk-5" value="Aircraft" style="swimlane;fontStyle=1;align=center;verticalAlign=top;childLayout=stackLayout;horizontal=1;startSize=26;horizontalStack=0;resizeParent=1;resizeParentMax=0;resizeLast=0;collapsible=1;marginBottom=0;whiteSpace=wrap;html=1;" parent="WIyWlLk6GJQsqaUBKTNV-1" vertex="1">
          <mxGeometry x="190" y="1190" width="160" height="134" as="geometry" />
        </mxCell>
        <mxCell id="SYZ7JO2TZXci38MoTMtk-6" value="- aircraftId&lt;br&gt;" style="text;strokeColor=none;fillColor=none;align=left;verticalAlign=top;spacingLeft=4;spacingRight=4;overflow=hidden;rotatable=0;points=[[0,0.5],[1,0.5]];portConstraint=eastwest;whiteSpace=wrap;html=1;" parent="SYZ7JO2TZXci38MoTMtk-5" vertex="1">
          <mxGeometry y="26" width="160" height="74" as="geometry" />
        </mxCell>
        <mxCell id="SYZ7JO2TZXci38MoTMtk-7" value="" style="line;strokeWidth=1;fillColor=none;align=left;verticalAlign=middle;spacingTop=-1;spacingLeft=3;spacingRight=3;rotatable=0;labelPosition=right;points=[];portConstraint=eastwest;strokeColor=inherit;" parent="SYZ7JO2TZXci38MoTMtk-5" vertex="1">
          <mxGeometry y="100" width="160" height="8" as="geometry" />
        </mxCell>
        <mxCell id="SYZ7JO2TZXci38MoTMtk-8" value="+ fetchDetail()" style="text;strokeColor=none;fillColor=none;align=left;verticalAlign=top;spacingLeft=4;spacingRight=4;overflow=hidden;rotatable=0;points=[[0,0.5],[1,0.5]];portConstraint=eastwest;whiteSpace=wrap;html=1;" parent="SYZ7JO2TZXci38MoTMtk-5" vertex="1">
          <mxGeometry y="108" width="160" height="26" as="geometry" />
        </mxCell>
        <mxCell id="SYZ7JO2TZXci38MoTMtk-20" style="edgeStyle=orthogonalEdgeStyle;rounded=0;orthogonalLoop=1;jettySize=auto;html=1;entryX=0.5;entryY=0;entryDx=0;entryDy=0;endArrow=open;endFill=0;" parent="WIyWlLk6GJQsqaUBKTNV-1" source="SYZ7JO2TZXci38MoTMtk-11" target="SYZ7JO2TZXci38MoTMtk-15" edge="1">
          <mxGeometry relative="1" as="geometry" />
        </mxCell>
        <mxCell id="SYZ7JO2TZXci38MoTMtk-11" value="Airline" style="swimlane;fontStyle=1;align=center;verticalAlign=top;childLayout=stackLayout;horizontal=1;startSize=26;horizontalStack=0;resizeParent=1;resizeParentMax=0;resizeLast=0;collapsible=1;marginBottom=0;whiteSpace=wrap;html=1;" parent="WIyWlLk6GJQsqaUBKTNV-1" vertex="1">
          <mxGeometry x="190" y="1350" width="160" height="134" as="geometry" />
        </mxCell>
        <mxCell id="SYZ7JO2TZXci38MoTMtk-12" value="- aircraftId&lt;br&gt;- aircrafts: List&amp;lt;Aircraft&amp;gt;&lt;br&gt;- crews: List&amp;lt;Crew&amp;gt;" style="text;strokeColor=none;fillColor=none;align=left;verticalAlign=top;spacingLeft=4;spacingRight=4;overflow=hidden;rotatable=0;points=[[0,0.5],[1,0.5]];portConstraint=eastwest;whiteSpace=wrap;html=1;" parent="SYZ7JO2TZXci38MoTMtk-11" vertex="1">
          <mxGeometry y="26" width="160" height="74" as="geometry" />
        </mxCell>
        <mxCell id="SYZ7JO2TZXci38MoTMtk-13" value="" style="line;strokeWidth=1;fillColor=none;align=left;verticalAlign=middle;spacingTop=-1;spacingLeft=3;spacingRight=3;rotatable=0;labelPosition=right;points=[];portConstraint=eastwest;strokeColor=inherit;" parent="SYZ7JO2TZXci38MoTMtk-11" vertex="1">
          <mxGeometry y="100" width="160" height="8" as="geometry" />
        </mxCell>
        <mxCell id="SYZ7JO2TZXci38MoTMtk-14" value="+ fetchDetail()" style="text;strokeColor=none;fillColor=none;align=left;verticalAlign=top;spacingLeft=4;spacingRight=4;overflow=hidden;rotatable=0;points=[[0,0.5],[1,0.5]];portConstraint=eastwest;whiteSpace=wrap;html=1;" parent="SYZ7JO2TZXci38MoTMtk-11" vertex="1">
          <mxGeometry y="108" width="160" height="26" as="geometry" />
        </mxCell>
        <mxCell id="SYZ7JO2TZXci38MoTMtk-15" value="Airport" style="swimlane;fontStyle=1;align=center;verticalAlign=top;childLayout=stackLayout;horizontal=1;startSize=26;horizontalStack=0;resizeParent=1;resizeParentMax=0;resizeLast=0;collapsible=1;marginBottom=0;whiteSpace=wrap;html=1;" parent="WIyWlLk6GJQsqaUBKTNV-1" vertex="1">
          <mxGeometry x="190" y="1520" width="160" height="134" as="geometry" />
        </mxCell>
        <mxCell id="SYZ7JO2TZXci38MoTMtk-16" value="- aircraftId&lt;br&gt;- airlines: List&amp;lt;Airline&amp;gt;&lt;br&gt;- aircrafts: List&amp;lt;Aircrafts&amp;gt;" style="text;strokeColor=none;fillColor=none;align=left;verticalAlign=top;spacingLeft=4;spacingRight=4;overflow=hidden;rotatable=0;points=[[0,0.5],[1,0.5]];portConstraint=eastwest;whiteSpace=wrap;html=1;" parent="SYZ7JO2TZXci38MoTMtk-15" vertex="1">
          <mxGeometry y="26" width="160" height="74" as="geometry" />
        </mxCell>
        <mxCell id="SYZ7JO2TZXci38MoTMtk-17" value="" style="line;strokeWidth=1;fillColor=none;align=left;verticalAlign=middle;spacingTop=-1;spacingLeft=3;spacingRight=3;rotatable=0;labelPosition=right;points=[];portConstraint=eastwest;strokeColor=inherit;" parent="SYZ7JO2TZXci38MoTMtk-15" vertex="1">
          <mxGeometry y="100" width="160" height="8" as="geometry" />
        </mxCell>
        <mxCell id="SYZ7JO2TZXci38MoTMtk-18" value="+ fetchDetail()" style="text;strokeColor=none;fillColor=none;align=left;verticalAlign=top;spacingLeft=4;spacingRight=4;overflow=hidden;rotatable=0;points=[[0,0.5],[1,0.5]];portConstraint=eastwest;whiteSpace=wrap;html=1;" parent="SYZ7JO2TZXci38MoTMtk-15" vertex="1">
          <mxGeometry y="108" width="160" height="26" as="geometry" />
        </mxCell>
        <mxCell id="SYZ7JO2TZXci38MoTMtk-42" style="edgeStyle=orthogonalEdgeStyle;rounded=0;orthogonalLoop=1;jettySize=auto;html=1;endArrow=open;endFill=0;" parent="WIyWlLk6GJQsqaUBKTNV-1" source="SYZ7JO2TZXci38MoTMtk-27" target="SYZ7JO2TZXci38MoTMtk-31" edge="1">
          <mxGeometry relative="1" as="geometry" />
        </mxCell>
        <mxCell id="SYZ7JO2TZXci38MoTMtk-27" value="Account" style="swimlane;fontStyle=1;align=center;verticalAlign=top;childLayout=stackLayout;horizontal=1;startSize=26;horizontalStack=0;resizeParent=1;resizeParentMax=0;resizeLast=0;collapsible=1;marginBottom=0;whiteSpace=wrap;html=1;" parent="WIyWlLk6GJQsqaUBKTNV-1" vertex="1">
          <mxGeometry x="440" y="1190" width="160" height="104" as="geometry" />
        </mxCell>
        <mxCell id="SYZ7JO2TZXci38MoTMtk-28" value="- username&lt;br&gt;- password&lt;br&gt;" style="text;strokeColor=none;fillColor=none;align=left;verticalAlign=top;spacingLeft=4;spacingRight=4;overflow=hidden;rotatable=0;points=[[0,0.5],[1,0.5]];portConstraint=eastwest;whiteSpace=wrap;html=1;" parent="SYZ7JO2TZXci38MoTMtk-27" vertex="1">
          <mxGeometry y="26" width="160" height="44" as="geometry" />
        </mxCell>
        <mxCell id="SYZ7JO2TZXci38MoTMtk-29" value="" style="line;strokeWidth=1;fillColor=none;align=left;verticalAlign=middle;spacingTop=-1;spacingLeft=3;spacingRight=3;rotatable=0;labelPosition=right;points=[];portConstraint=eastwest;strokeColor=inherit;" parent="SYZ7JO2TZXci38MoTMtk-27" vertex="1">
          <mxGeometry y="70" width="160" height="8" as="geometry" />
        </mxCell>
        <mxCell id="SYZ7JO2TZXci38MoTMtk-30" value="+ resetPassword()" style="text;strokeColor=none;fillColor=none;align=left;verticalAlign=top;spacingLeft=4;spacingRight=4;overflow=hidden;rotatable=0;points=[[0,0.5],[1,0.5]];portConstraint=eastwest;whiteSpace=wrap;html=1;" parent="SYZ7JO2TZXci38MoTMtk-27" vertex="1">
          <mxGeometry y="78" width="160" height="26" as="geometry" />
        </mxCell>
        <mxCell id="SYZ7JO2TZXci38MoTMtk-41" value="" style="edgeStyle=orthogonalEdgeStyle;rounded=0;orthogonalLoop=1;jettySize=auto;html=1;startArrow=block;startFill=1;endArrow=none;endFill=0;" parent="WIyWlLk6GJQsqaUBKTNV-1" source="SYZ7JO2TZXci38MoTMtk-31" target="SYZ7JO2TZXci38MoTMtk-37" edge="1">
          <mxGeometry relative="1" as="geometry" />
        </mxCell>
        <mxCell id="SYZ7JO2TZXci38MoTMtk-47" value="" style="edgeStyle=orthogonalEdgeStyle;rounded=0;orthogonalLoop=1;jettySize=auto;html=1;startArrow=block;startFill=1;endArrow=none;endFill=0;exitX=1;exitY=0.5;exitDx=0;exitDy=0;" parent="WIyWlLk6GJQsqaUBKTNV-1" source="SYZ7JO2TZXci38MoTMtk-32" target="SYZ7JO2TZXci38MoTMtk-48" edge="1">
          <mxGeometry relative="1" as="geometry">
            <mxPoint x="600" y="1532" as="sourcePoint" />
          </mxGeometry>
        </mxCell>
        <mxCell id="SYZ7JO2TZXci38MoTMtk-52" value="" style="edgeStyle=orthogonalEdgeStyle;rounded=0;orthogonalLoop=1;jettySize=auto;html=1;startArrow=block;startFill=1;endArrow=none;endFill=0;exitX=1;exitY=0.5;exitDx=0;exitDy=0;" parent="WIyWlLk6GJQsqaUBKTNV-1" source="SYZ7JO2TZXci38MoTMtk-32" target="SYZ7JO2TZXci38MoTMtk-53" edge="1">
          <mxGeometry relative="1" as="geometry">
            <mxPoint x="600" y="1662" as="sourcePoint" />
          </mxGeometry>
        </mxCell>
        <mxCell id="SYZ7JO2TZXci38MoTMtk-58" value="FrontDeskOfficer" style="swimlane;fontStyle=1;align=center;verticalAlign=top;childLayout=stackLayout;horizontal=1;startSize=26;horizontalStack=0;resizeParent=1;resizeParentMax=0;resizeLast=0;collapsible=1;marginBottom=0;whiteSpace=wrap;html=1;" parent="WIyWlLk6GJQsqaUBKTNV-1" vertex="1">
          <mxGeometry x="1280" y="1350" width="160" height="206" as="geometry" />
        </mxCell>
        <mxCell id="SYZ7JO2TZXci38MoTMtk-60" value="" style="line;strokeWidth=1;fillColor=none;align=left;verticalAlign=middle;spacingTop=-1;spacingLeft=3;spacingRight=3;rotatable=0;labelPosition=right;points=[];portConstraint=eastwest;strokeColor=inherit;" parent="SYZ7JO2TZXci38MoTMtk-58" vertex="1">
          <mxGeometry y="26" width="160" height="8" as="geometry" />
        </mxCell>
        <mxCell id="SYZ7JO2TZXci38MoTMtk-61" value="+ reserve&lt;br style=&quot;border-color: var(--border-color);&quot;&gt;+ search&lt;br style=&quot;border-color: var(--border-color);&quot;&gt;+ cancel&lt;br style=&quot;border-color: var(--border-color);&quot;&gt;+ update&lt;br style=&quot;border-color: var(--border-color);&quot;&gt;+ createItinerary" style="text;strokeColor=none;fillColor=none;align=left;verticalAlign=top;spacingLeft=4;spacingRight=4;overflow=hidden;rotatable=0;points=[[0,0.5],[1,0.5]];portConstraint=eastwest;whiteSpace=wrap;html=1;" parent="SYZ7JO2TZXci38MoTMtk-58" vertex="1">
          <mxGeometry y="34" width="160" height="172" as="geometry" />
        </mxCell>
        <mxCell id="SYZ7JO2TZXci38MoTMtk-62" value="" style="edgeStyle=orthogonalEdgeStyle;rounded=0;orthogonalLoop=1;jettySize=auto;html=1;entryX=1;entryY=0.5;entryDx=0;entryDy=0;" parent="WIyWlLk6GJQsqaUBKTNV-1" source="SYZ7JO2TZXci38MoTMtk-48" target="SYZ7JO2TZXci38MoTMtk-32" edge="1">
          <mxGeometry relative="1" as="geometry" />
        </mxCell>
        <mxCell id="SYZ7JO2TZXci38MoTMtk-63" value="extends" style="edgeLabel;html=1;align=center;verticalAlign=middle;resizable=0;points=[];" parent="SYZ7JO2TZXci38MoTMtk-62" vertex="1" connectable="0">
          <mxGeometry x="0.719" y="-1" relative="1" as="geometry">
            <mxPoint as="offset" />
          </mxGeometry>
        </mxCell>
        <mxCell id="SYZ7JO2TZXci38MoTMtk-48" value="Admin" style="swimlane;fontStyle=1;align=center;verticalAlign=top;childLayout=stackLayout;horizontal=1;startSize=26;horizontalStack=0;resizeParent=1;resizeParentMax=0;resizeLast=0;collapsible=1;marginBottom=0;whiteSpace=wrap;html=1;" parent="WIyWlLk6GJQsqaUBKTNV-1" vertex="1">
          <mxGeometry x="890" y="1350" width="160" height="210" as="geometry" />
        </mxCell>
        <mxCell id="SYZ7JO2TZXci38MoTMtk-49" value="- username&lt;br&gt;- password&lt;br&gt;" style="text;strokeColor=none;fillColor=none;align=left;verticalAlign=top;spacingLeft=4;spacingRight=4;overflow=hidden;rotatable=0;points=[[0,0.5],[1,0.5]];portConstraint=eastwest;whiteSpace=wrap;html=1;" parent="SYZ7JO2TZXci38MoTMtk-48" vertex="1">
          <mxGeometry y="26" width="160" height="44" as="geometry" />
        </mxCell>
        <mxCell id="SYZ7JO2TZXci38MoTMtk-50" value="" style="line;strokeWidth=1;fillColor=none;align=left;verticalAlign=middle;spacingTop=-1;spacingLeft=3;spacingRight=3;rotatable=0;labelPosition=right;points=[];portConstraint=eastwest;strokeColor=inherit;" parent="SYZ7JO2TZXci38MoTMtk-48" vertex="1">
          <mxGeometry y="70" width="160" height="8" as="geometry" />
        </mxCell>
        <mxCell id="SYZ7JO2TZXci38MoTMtk-51" value="+ addAircraft&lt;br&gt;+ addAirport" style="text;strokeColor=none;fillColor=none;align=left;verticalAlign=top;spacingLeft=4;spacingRight=4;overflow=hidden;rotatable=0;points=[[0,0.5],[1,0.5]];portConstraint=eastwest;whiteSpace=wrap;html=1;" parent="SYZ7JO2TZXci38MoTMtk-48" vertex="1">
          <mxGeometry y="78" width="160" height="132" as="geometry" />
        </mxCell>
        <mxCell id="SYZ7JO2TZXci38MoTMtk-53" value="Crew" style="swimlane;fontStyle=1;align=center;verticalAlign=top;childLayout=stackLayout;horizontal=1;startSize=26;horizontalStack=0;resizeParent=1;resizeParentMax=0;resizeLast=0;collapsible=1;marginBottom=0;whiteSpace=wrap;html=1;" parent="WIyWlLk6GJQsqaUBKTNV-1" vertex="1">
          <mxGeometry x="1090" y="1350" width="160" height="60" as="geometry" />
        </mxCell>
        <mxCell id="SYZ7JO2TZXci38MoTMtk-55" value="" style="line;strokeWidth=1;fillColor=none;align=left;verticalAlign=middle;spacingTop=-1;spacingLeft=3;spacingRight=3;rotatable=0;labelPosition=right;points=[];portConstraint=eastwest;strokeColor=inherit;" parent="SYZ7JO2TZXci38MoTMtk-53" vertex="1">
          <mxGeometry y="26" width="160" height="8" as="geometry" />
        </mxCell>
        <mxCell id="SYZ7JO2TZXci38MoTMtk-56" value="+ method(type): type" style="text;strokeColor=none;fillColor=none;align=left;verticalAlign=top;spacingLeft=4;spacingRight=4;overflow=hidden;rotatable=0;points=[[0,0.5],[1,0.5]];portConstraint=eastwest;whiteSpace=wrap;html=1;" parent="SYZ7JO2TZXci38MoTMtk-53" vertex="1">
          <mxGeometry y="34" width="160" height="26" as="geometry" />
        </mxCell>
        <mxCell id="SYZ7JO2TZXci38MoTMtk-112" style="edgeStyle=orthogonalEdgeStyle;rounded=0;orthogonalLoop=1;jettySize=auto;html=1;entryX=0;entryY=0.5;entryDx=0;entryDy=0;" parent="WIyWlLk6GJQsqaUBKTNV-1" source="SYZ7JO2TZXci38MoTMtk-37" target="SYZ7JO2TZXci38MoTMtk-108" edge="1">
          <mxGeometry relative="1" as="geometry" />
        </mxCell>
        <mxCell id="SYZ7JO2TZXci38MoTMtk-37" value="Passenger" style="swimlane;fontStyle=1;align=center;verticalAlign=top;childLayout=stackLayout;horizontal=1;startSize=26;horizontalStack=0;resizeParent=1;resizeParentMax=0;resizeLast=0;collapsible=1;marginBottom=0;whiteSpace=wrap;html=1;" parent="WIyWlLk6GJQsqaUBKTNV-1" vertex="1">
          <mxGeometry x="680" y="1350" width="160" height="220" as="geometry" />
        </mxCell>
        <mxCell id="SYZ7JO2TZXci38MoTMtk-38" value="- customerId" style="text;strokeColor=none;fillColor=none;align=left;verticalAlign=top;spacingLeft=4;spacingRight=4;overflow=hidden;rotatable=0;points=[[0,0.5],[1,0.5]];portConstraint=eastwest;whiteSpace=wrap;html=1;" parent="SYZ7JO2TZXci38MoTMtk-37" vertex="1">
          <mxGeometry y="26" width="160" height="44" as="geometry" />
        </mxCell>
        <mxCell id="SYZ7JO2TZXci38MoTMtk-39" value="" style="line;strokeWidth=1;fillColor=none;align=left;verticalAlign=middle;spacingTop=-1;spacingLeft=3;spacingRight=3;rotatable=0;labelPosition=right;points=[];portConstraint=eastwest;strokeColor=inherit;" parent="SYZ7JO2TZXci38MoTMtk-37" vertex="1">
          <mxGeometry y="70" width="160" height="8" as="geometry" />
        </mxCell>
        <mxCell id="SYZ7JO2TZXci38MoTMtk-40" value="+ reserve&lt;br&gt;+ search&lt;br&gt;+ cancel&lt;br&gt;+ update&lt;br&gt;+ createItinerary" style="text;strokeColor=none;fillColor=none;align=left;verticalAlign=top;spacingLeft=4;spacingRight=4;overflow=hidden;rotatable=0;points=[[0,0.5],[1,0.5]];portConstraint=eastwest;whiteSpace=wrap;html=1;" parent="SYZ7JO2TZXci38MoTMtk-37" vertex="1">
          <mxGeometry y="78" width="160" height="142" as="geometry" />
        </mxCell>
        <mxCell id="SYZ7JO2TZXci38MoTMtk-80" style="edgeStyle=orthogonalEdgeStyle;rounded=0;orthogonalLoop=1;jettySize=auto;html=1;entryX=1;entryY=0;entryDx=0;entryDy=0;" parent="WIyWlLk6GJQsqaUBKTNV-1" source="SYZ7JO2TZXci38MoTMtk-40" target="SYZ7JO2TZXci38MoTMtk-68" edge="1">
          <mxGeometry relative="1" as="geometry" />
        </mxCell>
        <mxCell id="SYZ7JO2TZXci38MoTMtk-72" value="" style="edgeStyle=orthogonalEdgeStyle;rounded=0;orthogonalLoop=1;jettySize=auto;html=1;endArrow=openThin;endFill=0;" parent="WIyWlLk6GJQsqaUBKTNV-1" source="SYZ7JO2TZXci38MoTMtk-68" target="SYZ7JO2TZXci38MoTMtk-64" edge="1">
          <mxGeometry relative="1" as="geometry" />
        </mxCell>
        <mxCell id="SYZ7JO2TZXci38MoTMtk-64" value="Flight" style="swimlane;fontStyle=1;align=center;verticalAlign=top;childLayout=stackLayout;horizontal=1;startSize=26;horizontalStack=0;resizeParent=1;resizeParentMax=0;resizeLast=0;collapsible=1;marginBottom=0;whiteSpace=wrap;html=1;" parent="WIyWlLk6GJQsqaUBKTNV-1" vertex="1">
          <mxGeometry x="-50" y="1860" width="220" height="218" as="geometry" />
        </mxCell>
        <mxCell id="SYZ7JO2TZXci38MoTMtk-65" value="- id&lt;br&gt;- instances: List&amp;lt;FlightInstance&amp;gt;&lt;br&gt;- departure&lt;br&gt;- arrival&lt;br&gt;- duration" style="text;strokeColor=none;fillColor=none;align=left;verticalAlign=top;spacingLeft=4;spacingRight=4;overflow=hidden;rotatable=0;points=[[0,0.5],[1,0.5]];portConstraint=eastwest;whiteSpace=wrap;html=1;" parent="SYZ7JO2TZXci38MoTMtk-64" vertex="1">
          <mxGeometry y="26" width="220" height="94" as="geometry" />
        </mxCell>
        <mxCell id="SYZ7JO2TZXci38MoTMtk-66" value="" style="line;strokeWidth=1;fillColor=none;align=left;verticalAlign=middle;spacingTop=-1;spacingLeft=3;spacingRight=3;rotatable=0;labelPosition=right;points=[];portConstraint=eastwest;strokeColor=inherit;" parent="SYZ7JO2TZXci38MoTMtk-64" vertex="1">
          <mxGeometry y="120" width="220" height="8" as="geometry" />
        </mxCell>
        <mxCell id="SYZ7JO2TZXci38MoTMtk-67" value="+ fetchDetails()" style="text;strokeColor=none;fillColor=none;align=left;verticalAlign=top;spacingLeft=4;spacingRight=4;overflow=hidden;rotatable=0;points=[[0,0.5],[1,0.5]];portConstraint=eastwest;whiteSpace=wrap;html=1;" parent="SYZ7JO2TZXci38MoTMtk-64" vertex="1">
          <mxGeometry y="128" width="220" height="90" as="geometry" />
        </mxCell>
        <mxCell id="SYZ7JO2TZXci38MoTMtk-78" value="" style="edgeStyle=orthogonalEdgeStyle;rounded=0;orthogonalLoop=1;jettySize=auto;html=1;" parent="WIyWlLk6GJQsqaUBKTNV-1" source="SYZ7JO2TZXci38MoTMtk-68" target="SYZ7JO2TZXci38MoTMtk-74" edge="1">
          <mxGeometry relative="1" as="geometry" />
        </mxCell>
        <mxCell id="SYZ7JO2TZXci38MoTMtk-68" value="FlightInstance" style="swimlane;fontStyle=1;align=center;verticalAlign=top;childLayout=stackLayout;horizontal=1;startSize=26;horizontalStack=0;resizeParent=1;resizeParentMax=0;resizeLast=0;collapsible=1;marginBottom=0;whiteSpace=wrap;html=1;" parent="WIyWlLk6GJQsqaUBKTNV-1" vertex="1">
          <mxGeometry x="250" y="1860" width="220" height="288" as="geometry" />
        </mxCell>
        <mxCell id="SYZ7JO2TZXci38MoTMtk-69" value="- id&lt;br&gt;- departureTime&lt;br&gt;- arrivalTime&lt;br&gt;- passengers: List&amp;lt;Passenger&amp;gt;&lt;br&gt;- crews: List&amp;lt;Crew&amp;gt;&lt;br&gt;- aircraftId&lt;br&gt;- seats: List&amp;lt;FlightSeat&amp;gt;" style="text;strokeColor=none;fillColor=none;align=left;verticalAlign=top;spacingLeft=4;spacingRight=4;overflow=hidden;rotatable=0;points=[[0,0.5],[1,0.5]];portConstraint=eastwest;whiteSpace=wrap;html=1;" parent="SYZ7JO2TZXci38MoTMtk-68" vertex="1">
          <mxGeometry y="26" width="220" height="164" as="geometry" />
        </mxCell>
        <mxCell id="SYZ7JO2TZXci38MoTMtk-70" value="" style="line;strokeWidth=1;fillColor=none;align=left;verticalAlign=middle;spacingTop=-1;spacingLeft=3;spacingRight=3;rotatable=0;labelPosition=right;points=[];portConstraint=eastwest;strokeColor=inherit;" parent="SYZ7JO2TZXci38MoTMtk-68" vertex="1">
          <mxGeometry y="190" width="220" height="8" as="geometry" />
        </mxCell>
        <mxCell id="SYZ7JO2TZXci38MoTMtk-71" value="+ fetchDetails()" style="text;strokeColor=none;fillColor=none;align=left;verticalAlign=top;spacingLeft=4;spacingRight=4;overflow=hidden;rotatable=0;points=[[0,0.5],[1,0.5]];portConstraint=eastwest;whiteSpace=wrap;html=1;" parent="SYZ7JO2TZXci38MoTMtk-68" vertex="1">
          <mxGeometry y="198" width="220" height="90" as="geometry" />
        </mxCell>
        <mxCell id="SYZ7JO2TZXci38MoTMtk-85" value="" style="edgeStyle=orthogonalEdgeStyle;rounded=0;orthogonalLoop=1;jettySize=auto;html=1;" parent="WIyWlLk6GJQsqaUBKTNV-1" source="SYZ7JO2TZXci38MoTMtk-74" target="SYZ7JO2TZXci38MoTMtk-81" edge="1">
          <mxGeometry relative="1" as="geometry" />
        </mxCell>
        <mxCell id="SYZ7JO2TZXci38MoTMtk-111" value="" style="edgeStyle=orthogonalEdgeStyle;rounded=0;orthogonalLoop=1;jettySize=auto;html=1;" parent="WIyWlLk6GJQsqaUBKTNV-1" source="SYZ7JO2TZXci38MoTMtk-74" target="SYZ7JO2TZXci38MoTMtk-107" edge="1">
          <mxGeometry relative="1" as="geometry" />
        </mxCell>
        <mxCell id="SYZ7JO2TZXci38MoTMtk-74" value="FlightBookingInformation" style="swimlane;fontStyle=1;align=center;verticalAlign=top;childLayout=stackLayout;horizontal=1;startSize=26;horizontalStack=0;resizeParent=1;resizeParentMax=0;resizeLast=0;collapsible=1;marginBottom=0;whiteSpace=wrap;html=1;" parent="WIyWlLk6GJQsqaUBKTNV-1" vertex="1">
          <mxGeometry x="550" y="1860" width="220" height="268" as="geometry" />
        </mxCell>
        <mxCell id="SYZ7JO2TZXci38MoTMtk-75" value="- flight: Flight&lt;br&gt;- passengerId&lt;br&gt;- departureTime&lt;br&gt;- arrivalTime&lt;br&gt;- timestamp&lt;br&gt;- transactionId&lt;br&gt;- seatInfo: FlightSeat&lt;br&gt;- status: BookingStatus" style="text;strokeColor=none;fillColor=none;align=left;verticalAlign=top;spacingLeft=4;spacingRight=4;overflow=hidden;rotatable=0;points=[[0,0.5],[1,0.5]];portConstraint=eastwest;whiteSpace=wrap;html=1;" parent="SYZ7JO2TZXci38MoTMtk-74" vertex="1">
          <mxGeometry y="26" width="220" height="144" as="geometry" />
        </mxCell>
        <mxCell id="SYZ7JO2TZXci38MoTMtk-76" value="" style="line;strokeWidth=1;fillColor=none;align=left;verticalAlign=middle;spacingTop=-1;spacingLeft=3;spacingRight=3;rotatable=0;labelPosition=right;points=[];portConstraint=eastwest;strokeColor=inherit;" parent="SYZ7JO2TZXci38MoTMtk-74" vertex="1">
          <mxGeometry y="170" width="220" height="8" as="geometry" />
        </mxCell>
        <mxCell id="SYZ7JO2TZXci38MoTMtk-77" value="+ fetchDetails()" style="text;strokeColor=none;fillColor=none;align=left;verticalAlign=top;spacingLeft=4;spacingRight=4;overflow=hidden;rotatable=0;points=[[0,0.5],[1,0.5]];portConstraint=eastwest;whiteSpace=wrap;html=1;" parent="SYZ7JO2TZXci38MoTMtk-74" vertex="1">
          <mxGeometry y="178" width="220" height="90" as="geometry" />
        </mxCell>
        <mxCell id="SYZ7JO2TZXci38MoTMtk-79" style="edgeStyle=orthogonalEdgeStyle;rounded=0;orthogonalLoop=1;jettySize=auto;html=1;entryX=0.542;entryY=0;entryDx=0;entryDy=0;entryPerimeter=0;" parent="WIyWlLk6GJQsqaUBKTNV-1" source="SYZ7JO2TZXci38MoTMtk-6" target="SYZ7JO2TZXci38MoTMtk-68" edge="1">
          <mxGeometry relative="1" as="geometry" />
        </mxCell>
        <mxCell id="SYZ7JO2TZXci38MoTMtk-90" style="edgeStyle=orthogonalEdgeStyle;rounded=0;orthogonalLoop=1;jettySize=auto;html=1;entryX=0;entryY=0.5;entryDx=0;entryDy=0;endArrow=classic;endFill=1;startArrow=none;startFill=0;exitX=0.75;exitY=0;exitDx=0;exitDy=0;" parent="WIyWlLk6GJQsqaUBKTNV-1" source="SYZ7JO2TZXci38MoTMtk-31" target="SYZ7JO2TZXci38MoTMtk-89" edge="1">
          <mxGeometry relative="1" as="geometry" />
        </mxCell>
        <mxCell id="SYZ7JO2TZXci38MoTMtk-31" value="Person" style="swimlane;fontStyle=1;align=center;verticalAlign=top;childLayout=stackLayout;horizontal=1;startSize=26;horizontalStack=0;resizeParent=1;resizeParentMax=0;resizeLast=0;collapsible=1;marginBottom=0;whiteSpace=wrap;html=1;" parent="WIyWlLk6GJQsqaUBKTNV-1" vertex="1">
          <mxGeometry x="440" y="1350" width="160" height="210" as="geometry" />
        </mxCell>
        <mxCell id="SYZ7JO2TZXci38MoTMtk-32" value="- name&lt;br&gt;- address&lt;br&gt;- accountId&lt;br&gt;-&amp;nbsp;" style="text;strokeColor=none;fillColor=none;align=left;verticalAlign=top;spacingLeft=4;spacingRight=4;overflow=hidden;rotatable=0;points=[[0,0.5],[1,0.5]];portConstraint=eastwest;whiteSpace=wrap;html=1;" parent="SYZ7JO2TZXci38MoTMtk-31" vertex="1">
          <mxGeometry y="26" width="160" height="74" as="geometry" />
        </mxCell>
        <mxCell id="SYZ7JO2TZXci38MoTMtk-33" value="" style="line;strokeWidth=1;fillColor=none;align=left;verticalAlign=middle;spacingTop=-1;spacingLeft=3;spacingRight=3;rotatable=0;labelPosition=right;points=[];portConstraint=eastwest;strokeColor=inherit;" parent="SYZ7JO2TZXci38MoTMtk-31" vertex="1">
          <mxGeometry y="100" width="160" height="8" as="geometry" />
        </mxCell>
        <mxCell id="SYZ7JO2TZXci38MoTMtk-34" value="&lt;span style=&quot;color: rgb(0, 0, 0); font-family: Helvetica; font-size: 12px; font-style: normal; font-variant-ligatures: normal; font-variant-caps: normal; font-weight: 400; letter-spacing: normal; orphans: 2; text-align: left; text-indent: 0px; text-transform: none; widows: 2; word-spacing: 0px; -webkit-text-stroke-width: 0px; background-color: rgb(251, 251, 251); text-decoration-thickness: initial; text-decoration-style: initial; text-decoration-color: initial; float: none; display: inline !important;&quot;&gt;+ reserve&lt;/span&gt;&lt;br style=&quot;border-color: var(--border-color); color: rgb(0, 0, 0); font-family: Helvetica; font-size: 12px; font-style: normal; font-variant-ligatures: normal; font-variant-caps: normal; font-weight: 400; letter-spacing: normal; orphans: 2; text-align: left; text-indent: 0px; text-transform: none; widows: 2; word-spacing: 0px; -webkit-text-stroke-width: 0px; background-color: rgb(251, 251, 251); text-decoration-thickness: initial; text-decoration-style: initial; text-decoration-color: initial;&quot;&gt;&lt;span style=&quot;color: rgb(0, 0, 0); font-family: Helvetica; font-size: 12px; font-style: normal; font-variant-ligatures: normal; font-variant-caps: normal; font-weight: 400; letter-spacing: normal; orphans: 2; text-align: left; text-indent: 0px; text-transform: none; widows: 2; word-spacing: 0px; -webkit-text-stroke-width: 0px; background-color: rgb(251, 251, 251); text-decoration-thickness: initial; text-decoration-style: initial; text-decoration-color: initial; float: none; display: inline !important;&quot;&gt;+ search&lt;/span&gt;&lt;br style=&quot;border-color: var(--border-color); color: rgb(0, 0, 0); font-family: Helvetica; font-size: 12px; font-style: normal; font-variant-ligatures: normal; font-variant-caps: normal; font-weight: 400; letter-spacing: normal; orphans: 2; text-align: left; text-indent: 0px; text-transform: none; widows: 2; word-spacing: 0px; -webkit-text-stroke-width: 0px; background-color: rgb(251, 251, 251); text-decoration-thickness: initial; text-decoration-style: initial; text-decoration-color: initial;&quot;&gt;&lt;span style=&quot;color: rgb(0, 0, 0); font-family: Helvetica; font-size: 12px; font-style: normal; font-variant-ligatures: normal; font-variant-caps: normal; font-weight: 400; letter-spacing: normal; orphans: 2; text-align: left; text-indent: 0px; text-transform: none; widows: 2; word-spacing: 0px; -webkit-text-stroke-width: 0px; background-color: rgb(251, 251, 251); text-decoration-thickness: initial; text-decoration-style: initial; text-decoration-color: initial; float: none; display: inline !important;&quot;&gt;+ cancel&lt;/span&gt;&lt;br style=&quot;border-color: var(--border-color); color: rgb(0, 0, 0); font-family: Helvetica; font-size: 12px; font-style: normal; font-variant-ligatures: normal; font-variant-caps: normal; font-weight: 400; letter-spacing: normal; orphans: 2; text-align: left; text-indent: 0px; text-transform: none; widows: 2; word-spacing: 0px; -webkit-text-stroke-width: 0px; background-color: rgb(251, 251, 251); text-decoration-thickness: initial; text-decoration-style: initial; text-decoration-color: initial;&quot;&gt;&lt;span style=&quot;color: rgb(0, 0, 0); font-family: Helvetica; font-size: 12px; font-style: normal; font-variant-ligatures: normal; font-variant-caps: normal; font-weight: 400; letter-spacing: normal; orphans: 2; text-align: left; text-indent: 0px; text-transform: none; widows: 2; word-spacing: 0px; -webkit-text-stroke-width: 0px; background-color: rgb(251, 251, 251); text-decoration-thickness: initial; text-decoration-style: initial; text-decoration-color: initial; float: none; display: inline !important;&quot;&gt;+ view / update/ createItinerary&lt;br&gt;+ view booking&lt;br&gt;&lt;/span&gt;" style="text;strokeColor=none;fillColor=none;align=left;verticalAlign=top;spacingLeft=4;spacingRight=4;overflow=hidden;rotatable=0;points=[[0,0.5],[1,0.5]];portConstraint=eastwest;whiteSpace=wrap;html=1;" parent="SYZ7JO2TZXci38MoTMtk-31" vertex="1">
          <mxGeometry y="108" width="160" height="102" as="geometry" />
        </mxCell>
        <mxCell id="SYZ7JO2TZXci38MoTMtk-95" value="" style="edgeStyle=orthogonalEdgeStyle;rounded=0;orthogonalLoop=1;jettySize=auto;html=1;" parent="WIyWlLk6GJQsqaUBKTNV-1" source="SYZ7JO2TZXci38MoTMtk-81" target="SYZ7JO2TZXci38MoTMtk-91" edge="1">
          <mxGeometry relative="1" as="geometry" />
        </mxCell>
        <mxCell id="SYZ7JO2TZXci38MoTMtk-81" value="Transaction" style="swimlane;fontStyle=1;align=center;verticalAlign=top;childLayout=stackLayout;horizontal=1;startSize=26;horizontalStack=0;resizeParent=1;resizeParentMax=0;resizeLast=0;collapsible=1;marginBottom=0;whiteSpace=wrap;html=1;" parent="WIyWlLk6GJQsqaUBKTNV-1" vertex="1">
          <mxGeometry x="550" y="1620" width="220" height="218" as="geometry" />
        </mxCell>
        <mxCell id="SYZ7JO2TZXci38MoTMtk-82" value="- transactionId" style="text;strokeColor=none;fillColor=none;align=left;verticalAlign=top;spacingLeft=4;spacingRight=4;overflow=hidden;rotatable=0;points=[[0,0.5],[1,0.5]];portConstraint=eastwest;whiteSpace=wrap;html=1;" parent="SYZ7JO2TZXci38MoTMtk-81" vertex="1">
          <mxGeometry y="26" width="220" height="94" as="geometry" />
        </mxCell>
        <mxCell id="SYZ7JO2TZXci38MoTMtk-83" value="" style="line;strokeWidth=1;fillColor=none;align=left;verticalAlign=middle;spacingTop=-1;spacingLeft=3;spacingRight=3;rotatable=0;labelPosition=right;points=[];portConstraint=eastwest;strokeColor=inherit;" parent="SYZ7JO2TZXci38MoTMtk-81" vertex="1">
          <mxGeometry y="120" width="220" height="8" as="geometry" />
        </mxCell>
        <mxCell id="SYZ7JO2TZXci38MoTMtk-84" value="+ fetchDetails()" style="text;strokeColor=none;fillColor=none;align=left;verticalAlign=top;spacingLeft=4;spacingRight=4;overflow=hidden;rotatable=0;points=[[0,0.5],[1,0.5]];portConstraint=eastwest;whiteSpace=wrap;html=1;" parent="SYZ7JO2TZXci38MoTMtk-81" vertex="1">
          <mxGeometry y="128" width="220" height="90" as="geometry" />
        </mxCell>
        <mxCell id="SYZ7JO2TZXci38MoTMtk-86" value="Search" style="swimlane;fontStyle=1;align=center;verticalAlign=top;childLayout=stackLayout;horizontal=1;startSize=26;horizontalStack=0;resizeParent=1;resizeParentMax=0;resizeLast=0;collapsible=1;marginBottom=0;whiteSpace=wrap;html=1;" parent="WIyWlLk6GJQsqaUBKTNV-1" vertex="1">
          <mxGeometry x="640" y="1240" width="160" height="86" as="geometry" />
        </mxCell>
        <mxCell id="SYZ7JO2TZXci38MoTMtk-87" value="- data:" style="text;strokeColor=none;fillColor=none;align=left;verticalAlign=top;spacingLeft=4;spacingRight=4;overflow=hidden;rotatable=0;points=[[0,0.5],[1,0.5]];portConstraint=eastwest;whiteSpace=wrap;html=1;" parent="SYZ7JO2TZXci38MoTMtk-86" vertex="1">
          <mxGeometry y="26" width="160" height="26" as="geometry" />
        </mxCell>
        <mxCell id="SYZ7JO2TZXci38MoTMtk-88" value="" style="line;strokeWidth=1;fillColor=none;align=left;verticalAlign=middle;spacingTop=-1;spacingLeft=3;spacingRight=3;rotatable=0;labelPosition=right;points=[];portConstraint=eastwest;strokeColor=inherit;" parent="SYZ7JO2TZXci38MoTMtk-86" vertex="1">
          <mxGeometry y="52" width="160" height="8" as="geometry" />
        </mxCell>
        <mxCell id="SYZ7JO2TZXci38MoTMtk-89" value="+ search()" style="text;strokeColor=none;fillColor=none;align=left;verticalAlign=top;spacingLeft=4;spacingRight=4;overflow=hidden;rotatable=0;points=[[0,0.5],[1,0.5]];portConstraint=eastwest;whiteSpace=wrap;html=1;" parent="SYZ7JO2TZXci38MoTMtk-86" vertex="1">
          <mxGeometry y="60" width="160" height="26" as="geometry" />
        </mxCell>
        <mxCell id="SYZ7JO2TZXci38MoTMtk-100" value="" style="edgeStyle=orthogonalEdgeStyle;rounded=0;orthogonalLoop=1;jettySize=auto;html=1;startArrow=classic;startFill=1;endArrow=none;endFill=0;" parent="WIyWlLk6GJQsqaUBKTNV-1" source="SYZ7JO2TZXci38MoTMtk-91" target="SYZ7JO2TZXci38MoTMtk-96" edge="1">
          <mxGeometry relative="1" as="geometry" />
        </mxCell>
        <mxCell id="SYZ7JO2TZXci38MoTMtk-101" value="implements" style="edgeLabel;html=1;align=center;verticalAlign=middle;resizable=0;points=[];" parent="SYZ7JO2TZXci38MoTMtk-100" vertex="1" connectable="0">
          <mxGeometry x="0.0426" y="2" relative="1" as="geometry">
            <mxPoint x="1" as="offset" />
          </mxGeometry>
        </mxCell>
        <mxCell id="SYZ7JO2TZXci38MoTMtk-91" value="&amp;lt;&amp;lt;abstract&amp;gt;&amp;gt; Payment" style="swimlane;fontStyle=1;align=center;verticalAlign=top;childLayout=stackLayout;horizontal=1;startSize=26;horizontalStack=0;resizeParent=1;resizeParentMax=0;resizeLast=0;collapsible=1;marginBottom=0;whiteSpace=wrap;html=1;" parent="WIyWlLk6GJQsqaUBKTNV-1" vertex="1">
          <mxGeometry x="850" y="1620" width="220" height="218" as="geometry" />
        </mxCell>
        <mxCell id="SYZ7JO2TZXci38MoTMtk-92" value="- transactionId" style="text;strokeColor=none;fillColor=none;align=left;verticalAlign=top;spacingLeft=4;spacingRight=4;overflow=hidden;rotatable=0;points=[[0,0.5],[1,0.5]];portConstraint=eastwest;whiteSpace=wrap;html=1;" parent="SYZ7JO2TZXci38MoTMtk-91" vertex="1">
          <mxGeometry y="26" width="220" height="94" as="geometry" />
        </mxCell>
        <mxCell id="SYZ7JO2TZXci38MoTMtk-93" value="" style="line;strokeWidth=1;fillColor=none;align=left;verticalAlign=middle;spacingTop=-1;spacingLeft=3;spacingRight=3;rotatable=0;labelPosition=right;points=[];portConstraint=eastwest;strokeColor=inherit;" parent="SYZ7JO2TZXci38MoTMtk-91" vertex="1">
          <mxGeometry y="120" width="220" height="8" as="geometry" />
        </mxCell>
        <mxCell id="SYZ7JO2TZXci38MoTMtk-94" value="- makePayment" style="text;strokeColor=none;fillColor=none;align=left;verticalAlign=top;spacingLeft=4;spacingRight=4;overflow=hidden;rotatable=0;points=[[0,0.5],[1,0.5]];portConstraint=eastwest;whiteSpace=wrap;html=1;" parent="SYZ7JO2TZXci38MoTMtk-91" vertex="1">
          <mxGeometry y="128" width="220" height="90" as="geometry" />
        </mxCell>
        <mxCell id="SYZ7JO2TZXci38MoTMtk-96" value="CreditCardPayment" style="swimlane;fontStyle=1;align=center;verticalAlign=top;childLayout=stackLayout;horizontal=1;startSize=26;horizontalStack=0;resizeParent=1;resizeParentMax=0;resizeLast=0;collapsible=1;marginBottom=0;whiteSpace=wrap;html=1;" parent="WIyWlLk6GJQsqaUBKTNV-1" vertex="1">
          <mxGeometry x="1150" y="1620" width="220" height="218" as="geometry" />
        </mxCell>
        <mxCell id="SYZ7JO2TZXci38MoTMtk-97" value="- transactionId&lt;br&gt;- creditCardInfo: CreditCardInfo" style="text;strokeColor=none;fillColor=none;align=left;verticalAlign=top;spacingLeft=4;spacingRight=4;overflow=hidden;rotatable=0;points=[[0,0.5],[1,0.5]];portConstraint=eastwest;whiteSpace=wrap;html=1;" parent="SYZ7JO2TZXci38MoTMtk-96" vertex="1">
          <mxGeometry y="26" width="220" height="94" as="geometry" />
        </mxCell>
        <mxCell id="SYZ7JO2TZXci38MoTMtk-98" value="" style="line;strokeWidth=1;fillColor=none;align=left;verticalAlign=middle;spacingTop=-1;spacingLeft=3;spacingRight=3;rotatable=0;labelPosition=right;points=[];portConstraint=eastwest;strokeColor=inherit;" parent="SYZ7JO2TZXci38MoTMtk-96" vertex="1">
          <mxGeometry y="120" width="220" height="8" as="geometry" />
        </mxCell>
        <mxCell id="SYZ7JO2TZXci38MoTMtk-99" value="- makePayment" style="text;strokeColor=none;fillColor=none;align=left;verticalAlign=top;spacingLeft=4;spacingRight=4;overflow=hidden;rotatable=0;points=[[0,0.5],[1,0.5]];portConstraint=eastwest;whiteSpace=wrap;html=1;" parent="SYZ7JO2TZXci38MoTMtk-96" vertex="1">
          <mxGeometry y="128" width="220" height="90" as="geometry" />
        </mxCell>
        <mxCell id="SYZ7JO2TZXci38MoTMtk-102" value="Cash" style="swimlane;fontStyle=1;align=center;verticalAlign=top;childLayout=stackLayout;horizontal=1;startSize=26;horizontalStack=0;resizeParent=1;resizeParentMax=0;resizeLast=0;collapsible=1;marginBottom=0;whiteSpace=wrap;html=1;" parent="WIyWlLk6GJQsqaUBKTNV-1" vertex="1">
          <mxGeometry x="1150" y="1870" width="220" height="218" as="geometry" />
        </mxCell>
        <mxCell id="SYZ7JO2TZXci38MoTMtk-103" value="- transactionId&lt;br&gt;" style="text;strokeColor=none;fillColor=none;align=left;verticalAlign=top;spacingLeft=4;spacingRight=4;overflow=hidden;rotatable=0;points=[[0,0.5],[1,0.5]];portConstraint=eastwest;whiteSpace=wrap;html=1;" parent="SYZ7JO2TZXci38MoTMtk-102" vertex="1">
          <mxGeometry y="26" width="220" height="94" as="geometry" />
        </mxCell>
        <mxCell id="SYZ7JO2TZXci38MoTMtk-104" value="" style="line;strokeWidth=1;fillColor=none;align=left;verticalAlign=middle;spacingTop=-1;spacingLeft=3;spacingRight=3;rotatable=0;labelPosition=right;points=[];portConstraint=eastwest;strokeColor=inherit;" parent="SYZ7JO2TZXci38MoTMtk-102" vertex="1">
          <mxGeometry y="120" width="220" height="8" as="geometry" />
        </mxCell>
        <mxCell id="SYZ7JO2TZXci38MoTMtk-105" value="- makePayment" style="text;strokeColor=none;fillColor=none;align=left;verticalAlign=top;spacingLeft=4;spacingRight=4;overflow=hidden;rotatable=0;points=[[0,0.5],[1,0.5]];portConstraint=eastwest;whiteSpace=wrap;html=1;" parent="SYZ7JO2TZXci38MoTMtk-102" vertex="1">
          <mxGeometry y="128" width="220" height="90" as="geometry" />
        </mxCell>
        <mxCell id="SYZ7JO2TZXci38MoTMtk-106" style="edgeStyle=orthogonalEdgeStyle;rounded=0;orthogonalLoop=1;jettySize=auto;html=1;entryX=0.5;entryY=0.997;entryDx=0;entryDy=0;entryPerimeter=0;endArrow=none;endFill=0;" parent="WIyWlLk6GJQsqaUBKTNV-1" source="SYZ7JO2TZXci38MoTMtk-102" target="SYZ7JO2TZXci38MoTMtk-99" edge="1">
          <mxGeometry relative="1" as="geometry" />
        </mxCell>
        <mxCell id="SYZ7JO2TZXci38MoTMtk-107" value="Itinerary" style="swimlane;fontStyle=1;align=center;verticalAlign=top;childLayout=stackLayout;horizontal=1;startSize=26;horizontalStack=0;resizeParent=1;resizeParentMax=0;resizeLast=0;collapsible=1;marginBottom=0;whiteSpace=wrap;html=1;" parent="WIyWlLk6GJQsqaUBKTNV-1" vertex="1">
          <mxGeometry x="850" y="1860" width="220" height="218" as="geometry" />
        </mxCell>
        <mxCell id="SYZ7JO2TZXci38MoTMtk-108" value="- bookings: List&amp;lt;FlightBookingInformation&amp;gt;&lt;br&gt;- passengerId&lt;br&gt;- departureTime&lt;br&gt;- finalDest&lt;br&gt;- finalArrivalTime" style="text;strokeColor=none;fillColor=none;align=left;verticalAlign=top;spacingLeft=4;spacingRight=4;overflow=hidden;rotatable=0;points=[[0,0.5],[1,0.5]];portConstraint=eastwest;whiteSpace=wrap;html=1;" parent="SYZ7JO2TZXci38MoTMtk-107" vertex="1">
          <mxGeometry y="26" width="220" height="94" as="geometry" />
        </mxCell>
        <mxCell id="SYZ7JO2TZXci38MoTMtk-109" value="" style="line;strokeWidth=1;fillColor=none;align=left;verticalAlign=middle;spacingTop=-1;spacingLeft=3;spacingRight=3;rotatable=0;labelPosition=right;points=[];portConstraint=eastwest;strokeColor=inherit;" parent="SYZ7JO2TZXci38MoTMtk-107" vertex="1">
          <mxGeometry y="120" width="220" height="8" as="geometry" />
        </mxCell>
        <mxCell id="SYZ7JO2TZXci38MoTMtk-110" value="+ fetchDetails()" style="text;strokeColor=none;fillColor=none;align=left;verticalAlign=top;spacingLeft=4;spacingRight=4;overflow=hidden;rotatable=0;points=[[0,0.5],[1,0.5]];portConstraint=eastwest;whiteSpace=wrap;html=1;" parent="SYZ7JO2TZXci38MoTMtk-107" vertex="1">
          <mxGeometry y="128" width="220" height="90" as="geometry" />
        </mxCell>
        <mxCell id="SYZ7JO2TZXci38MoTMtk-121" value="" style="edgeStyle=orthogonalEdgeStyle;rounded=0;orthogonalLoop=1;jettySize=auto;html=1;" parent="WIyWlLk6GJQsqaUBKTNV-1" source="SYZ7JO2TZXci38MoTMtk-117" target="SYZ7JO2TZXci38MoTMtk-113" edge="1">
          <mxGeometry relative="1" as="geometry" />
        </mxCell>
        <mxCell id="SYZ7JO2TZXci38MoTMtk-113" value="&amp;lt;&amp;lt;abstract&amp;gt;&amp;gt; Notification" style="swimlane;fontStyle=1;align=center;verticalAlign=top;childLayout=stackLayout;horizontal=1;startSize=26;horizontalStack=0;resizeParent=1;resizeParentMax=0;resizeLast=0;collapsible=1;marginBottom=0;whiteSpace=wrap;html=1;" parent="WIyWlLk6GJQsqaUBKTNV-1" vertex="1">
          <mxGeometry x="840" y="1238" width="160" height="86" as="geometry" />
        </mxCell>
        <mxCell id="SYZ7JO2TZXci38MoTMtk-114" value="- data:" style="text;strokeColor=none;fillColor=none;align=left;verticalAlign=top;spacingLeft=4;spacingRight=4;overflow=hidden;rotatable=0;points=[[0,0.5],[1,0.5]];portConstraint=eastwest;whiteSpace=wrap;html=1;" parent="SYZ7JO2TZXci38MoTMtk-113" vertex="1">
          <mxGeometry y="26" width="160" height="26" as="geometry" />
        </mxCell>
        <mxCell id="SYZ7JO2TZXci38MoTMtk-115" value="" style="line;strokeWidth=1;fillColor=none;align=left;verticalAlign=middle;spacingTop=-1;spacingLeft=3;spacingRight=3;rotatable=0;labelPosition=right;points=[];portConstraint=eastwest;strokeColor=inherit;" parent="SYZ7JO2TZXci38MoTMtk-113" vertex="1">
          <mxGeometry y="52" width="160" height="8" as="geometry" />
        </mxCell>
        <mxCell id="SYZ7JO2TZXci38MoTMtk-116" value="+ search()" style="text;strokeColor=none;fillColor=none;align=left;verticalAlign=top;spacingLeft=4;spacingRight=4;overflow=hidden;rotatable=0;points=[[0,0.5],[1,0.5]];portConstraint=eastwest;whiteSpace=wrap;html=1;" parent="SYZ7JO2TZXci38MoTMtk-113" vertex="1">
          <mxGeometry y="60" width="160" height="26" as="geometry" />
        </mxCell>
        <mxCell id="SYZ7JO2TZXci38MoTMtk-127" value="" style="edgeStyle=orthogonalEdgeStyle;rounded=0;orthogonalLoop=1;jettySize=auto;html=1;endArrow=none;endFill=0;" parent="WIyWlLk6GJQsqaUBKTNV-1" source="SYZ7JO2TZXci38MoTMtk-117" target="SYZ7JO2TZXci38MoTMtk-123" edge="1">
          <mxGeometry relative="1" as="geometry" />
        </mxCell>
        <mxCell id="SYZ7JO2TZXci38MoTMtk-117" value="EmailNotification" style="swimlane;fontStyle=1;align=center;verticalAlign=top;childLayout=stackLayout;horizontal=1;startSize=26;horizontalStack=0;resizeParent=1;resizeParentMax=0;resizeLast=0;collapsible=1;marginBottom=0;whiteSpace=wrap;html=1;" parent="WIyWlLk6GJQsqaUBKTNV-1" vertex="1">
          <mxGeometry x="840" y="1072" width="160" height="86" as="geometry" />
        </mxCell>
        <mxCell id="SYZ7JO2TZXci38MoTMtk-118" value="- data:" style="text;strokeColor=none;fillColor=none;align=left;verticalAlign=top;spacingLeft=4;spacingRight=4;overflow=hidden;rotatable=0;points=[[0,0.5],[1,0.5]];portConstraint=eastwest;whiteSpace=wrap;html=1;" parent="SYZ7JO2TZXci38MoTMtk-117" vertex="1">
          <mxGeometry y="26" width="160" height="26" as="geometry" />
        </mxCell>
        <mxCell id="SYZ7JO2TZXci38MoTMtk-119" value="" style="line;strokeWidth=1;fillColor=none;align=left;verticalAlign=middle;spacingTop=-1;spacingLeft=3;spacingRight=3;rotatable=0;labelPosition=right;points=[];portConstraint=eastwest;strokeColor=inherit;" parent="SYZ7JO2TZXci38MoTMtk-117" vertex="1">
          <mxGeometry y="52" width="160" height="8" as="geometry" />
        </mxCell>
        <mxCell id="SYZ7JO2TZXci38MoTMtk-120" value="+ search()" style="text;strokeColor=none;fillColor=none;align=left;verticalAlign=top;spacingLeft=4;spacingRight=4;overflow=hidden;rotatable=0;points=[[0,0.5],[1,0.5]];portConstraint=eastwest;whiteSpace=wrap;html=1;" parent="SYZ7JO2TZXci38MoTMtk-117" vertex="1">
          <mxGeometry y="60" width="160" height="26" as="geometry" />
        </mxCell>
        <mxCell id="SYZ7JO2TZXci38MoTMtk-123" value="SmsNotification" style="swimlane;fontStyle=1;align=center;verticalAlign=top;childLayout=stackLayout;horizontal=1;startSize=26;horizontalStack=0;resizeParent=1;resizeParentMax=0;resizeLast=0;collapsible=1;marginBottom=0;whiteSpace=wrap;html=1;" parent="WIyWlLk6GJQsqaUBKTNV-1" vertex="1">
          <mxGeometry x="1080" y="1072" width="160" height="86" as="geometry" />
        </mxCell>
        <mxCell id="SYZ7JO2TZXci38MoTMtk-124" value="- data:" style="text;strokeColor=none;fillColor=none;align=left;verticalAlign=top;spacingLeft=4;spacingRight=4;overflow=hidden;rotatable=0;points=[[0,0.5],[1,0.5]];portConstraint=eastwest;whiteSpace=wrap;html=1;" parent="SYZ7JO2TZXci38MoTMtk-123" vertex="1">
          <mxGeometry y="26" width="160" height="26" as="geometry" />
        </mxCell>
        <mxCell id="SYZ7JO2TZXci38MoTMtk-125" value="" style="line;strokeWidth=1;fillColor=none;align=left;verticalAlign=middle;spacingTop=-1;spacingLeft=3;spacingRight=3;rotatable=0;labelPosition=right;points=[];portConstraint=eastwest;strokeColor=inherit;" parent="SYZ7JO2TZXci38MoTMtk-123" vertex="1">
          <mxGeometry y="52" width="160" height="8" as="geometry" />
        </mxCell>
        <mxCell id="SYZ7JO2TZXci38MoTMtk-126" value="+ search()" style="text;strokeColor=none;fillColor=none;align=left;verticalAlign=top;spacingLeft=4;spacingRight=4;overflow=hidden;rotatable=0;points=[[0,0.5],[1,0.5]];portConstraint=eastwest;whiteSpace=wrap;html=1;" parent="SYZ7JO2TZXci38MoTMtk-123" vertex="1">
          <mxGeometry y="60" width="160" height="26" as="geometry" />
        </mxCell>
        <mxCell id="2cHuPonfLjFNhFYmq1CY-9" value="" style="edgeStyle=orthogonalEdgeStyle;rounded=0;orthogonalLoop=1;jettySize=auto;html=1;" edge="1" parent="WIyWlLk6GJQsqaUBKTNV-1" source="2cHuPonfLjFNhFYmq1CY-0" target="2cHuPonfLjFNhFYmq1CY-5">
          <mxGeometry relative="1" as="geometry" />
        </mxCell>
        <mxCell id="2cHuPonfLjFNhFYmq1CY-0" value="Account" style="swimlane;fontStyle=1;align=center;verticalAlign=top;childLayout=stackLayout;horizontal=1;startSize=26;horizontalStack=0;resizeParent=1;resizeParentMax=0;resizeLast=0;collapsible=1;marginBottom=0;whiteSpace=wrap;html=1;" vertex="1" parent="WIyWlLk6GJQsqaUBKTNV-1">
          <mxGeometry x="2110" y="982" width="160" height="86" as="geometry" />
        </mxCell>
        <mxCell id="2cHuPonfLjFNhFYmq1CY-1" value="- username / password" style="text;strokeColor=none;fillColor=none;align=left;verticalAlign=top;spacingLeft=4;spacingRight=4;overflow=hidden;rotatable=0;points=[[0,0.5],[1,0.5]];portConstraint=eastwest;whiteSpace=wrap;html=1;" vertex="1" parent="2cHuPonfLjFNhFYmq1CY-0">
          <mxGeometry y="26" width="160" height="26" as="geometry" />
        </mxCell>
        <mxCell id="2cHuPonfLjFNhFYmq1CY-2" value="" style="line;strokeWidth=1;fillColor=none;align=left;verticalAlign=middle;spacingTop=-1;spacingLeft=3;spacingRight=3;rotatable=0;labelPosition=right;points=[];portConstraint=eastwest;strokeColor=inherit;" vertex="1" parent="2cHuPonfLjFNhFYmq1CY-0">
          <mxGeometry y="52" width="160" height="8" as="geometry" />
        </mxCell>
        <mxCell id="2cHuPonfLjFNhFYmq1CY-3" value="+ resetPassword()" style="text;strokeColor=none;fillColor=none;align=left;verticalAlign=top;spacingLeft=4;spacingRight=4;overflow=hidden;rotatable=0;points=[[0,0.5],[1,0.5]];portConstraint=eastwest;whiteSpace=wrap;html=1;" vertex="1" parent="2cHuPonfLjFNhFYmq1CY-0">
          <mxGeometry y="60" width="160" height="26" as="geometry" />
        </mxCell>
        <mxCell id="2cHuPonfLjFNhFYmq1CY-5" value="P" style="swimlane;fontStyle=1;align=center;verticalAlign=top;childLayout=stackLayout;horizontal=1;startSize=26;horizontalStack=0;resizeParent=1;resizeParentMax=0;resizeLast=0;collapsible=1;marginBottom=0;whiteSpace=wrap;html=1;" vertex="1" parent="WIyWlLk6GJQsqaUBKTNV-1">
          <mxGeometry x="2350" y="982" width="160" height="86" as="geometry" />
        </mxCell>
        <mxCell id="2cHuPonfLjFNhFYmq1CY-6" value="- username / password" style="text;strokeColor=none;fillColor=none;align=left;verticalAlign=top;spacingLeft=4;spacingRight=4;overflow=hidden;rotatable=0;points=[[0,0.5],[1,0.5]];portConstraint=eastwest;whiteSpace=wrap;html=1;" vertex="1" parent="2cHuPonfLjFNhFYmq1CY-5">
          <mxGeometry y="26" width="160" height="26" as="geometry" />
        </mxCell>
        <mxCell id="2cHuPonfLjFNhFYmq1CY-7" value="" style="line;strokeWidth=1;fillColor=none;align=left;verticalAlign=middle;spacingTop=-1;spacingLeft=3;spacingRight=3;rotatable=0;labelPosition=right;points=[];portConstraint=eastwest;strokeColor=inherit;" vertex="1" parent="2cHuPonfLjFNhFYmq1CY-5">
          <mxGeometry y="52" width="160" height="8" as="geometry" />
        </mxCell>
        <mxCell id="2cHuPonfLjFNhFYmq1CY-8" value="+ resetPassword()" style="text;strokeColor=none;fillColor=none;align=left;verticalAlign=top;spacingLeft=4;spacingRight=4;overflow=hidden;rotatable=0;points=[[0,0.5],[1,0.5]];portConstraint=eastwest;whiteSpace=wrap;html=1;" vertex="1" parent="2cHuPonfLjFNhFYmq1CY-5">
          <mxGeometry y="60" width="160" height="26" as="geometry" />
        </mxCell>
      </root>
    </mxGraphModel>
  </diagram>
</mxfile>
